<svg xmlns="http://www.w3.org/2000/svg" id="a" viewBox="0 0 600 765"><rect x="-.19" y=".09" width="600" height="764.79" fill="#1690f4"></rect><rect x=".63" y="476.32" width="200.68" height="160.81" fill="#35d3cb"></rect><rect x=".63" y="315.38" width="200.66" height="160.88" fill="#249dd3"></rect><rect x="201.34" y="315.09" width="201.31" height="161.24" fill="#7de7ea"></rect><rect x="201.22" y="476.31" width="200.6" height="160.88" fill="#19a292"></rect><path d="M201.17,637.2c-.76-54.35-45.36-98.18-100.27-98.18S1.38,582.85,.63,637.2H201.17Z" fill="#026fc9"></path><circle cx="100.9" cy="519.24" r="62.54" fill="#1690f4"></circle><circle cx="100.9" cy="433.86" r="62.54" fill="#30fcf6"></circle><path d="M101.81,457.61c-18.03,0-34.26,7.64-45.68,19.84,11.41,12.21,27.65,19.84,45.68,19.84s34.26-7.64,45.68-19.84c-11.41-12.21-27.65-19.84-45.68-19.84Z" fill="#3bc0f8"></path><path d="M100.88,539.02v98.25h100.44c-.76-54.39-45.36-98.25-100.27-98.25-.06,0-.11,0-.17,0Z" fill="#3bc0f8"></path><path d="M100.9,539.01c-19.13,0-37,5.36-52.21,14.65,11.19,16.94,30.39,28.12,52.21,28.12s41.02-11.18,52.21-28.12c-15.21-9.29-33.08-14.65-52.21-14.65Z" fill="#2857db"></path><path d="M100.87,538.98v42.76h.05c21.82,0,41.02-11.18,52.21-28.12-15.21-9.29-33.08-14.65-52.21-14.65h-.05Z" fill="#1fe5e5"></path><path d="M201.17,315.22c-.76,54.74-45.36,98.88-100.27,98.88S1.38,369.95,.63,315.22H201.17Z" fill="#19a28b"></path><path d="M100.88,414.09v-98.87h100.44c-.76,54.74-45.36,98.88-100.27,98.88-.06,0-.11,0-.17,0Z" fill="#3bc0f8"></path><path d="M100.9,414.09c-19.13,0-37-5.36-52.21-14.65,11.19-16.94,30.39-28.12,52.21-28.12s41.02,11.18,52.21,28.12c-15.21,9.29-33.08,14.65-52.21,14.65Z" fill="#35d3cb"></path><path d="M100.87,414.13v-42.76h.05c21.82,0,41.02,11.18,52.21,28.12-15.21,9.29-33.08,14.65-52.21,14.65h-.05Z" fill="#75e6f9"></path><path d="M401.86,637.3c-.76-54.74-45.36-98.88-100.27-98.88s-99.51,44.14-100.27,98.88h200.54Z" fill="#0283a0"></path><circle cx="301.24" cy="518.51" r="62.54" fill="#0fb7ab"></circle><circle cx="301.24" cy="433.13" r="62.54" fill="#1690f4"></circle><path d="M301.22,538.28v98.87h100.44c-.76-54.74-45.36-98.88-100.27-98.88-.06,0-.11,0-.17,0Z" fill="#30fcf6"></path><path d="M301.24,538.28c-19.13,0-37,5.36-52.21,14.65,11.19,16.94,30.39,28.12,52.21,28.12s41.02-11.18,52.21-28.12c-15.21-9.29-33.08-14.65-52.21-14.65Z" fill="#249dd3"></path><path d="M301.21,538.25v42.76h.05c21.82,0,41.02-11.18,52.21-28.12-15.21-9.29-33.08-14.65-52.21-14.65h-.05Z" fill="#1690f4"></path><path d="M401.51,315.23c-.76,54.32-45.36,98.13-100.27,98.13s-99.51-43.81-100.27-98.13h200.54Z" fill="#4ed886"></path><path d="M301.22,413.36v-98.37h100.44c-.76,54.46-45.36,98.38-100.27,98.38-.06,0-.11,0-.17,0Z" fill="#1b5caa"></path><path d="M301.24,413.36c-19.13,0-37-5.36-52.21-14.65,11.19-16.94,30.39-28.12,52.21-28.12s41.02,11.18,52.21,28.12c-15.21,9.29-33.08,14.65-52.21,14.65Z" fill="#35d3cb"></path><path d="M301.21,413.4v-42.76h.05c21.82,0,41.02,11.18,52.21,28.12-15.21,9.29-33.08,14.65-52.21,14.65h-.05Z" fill="#75e6f9"></path><rect x=".32" y="636.35" width="600" height="128.68" fill="#1690f4"></rect><path d="M301.23,455.97c-18.03,0-34.26,7.64-45.68,19.84,11.41,12.21,27.65,19.84,45.68,19.84s34.26-7.64,45.68-19.84c-11.41-12.21-27.65-19.84-45.68-19.84Z" fill="#1fe5e5"></path><polyline points=".29 636.6 64.48 700.76 .32 764.94" fill="#0050a8"></polyline><polyline points="64.8 636.94 128.99 701.1 64.83 765.28" fill="#0fb7ab"></polyline><polyline points="129.99 636.77 194.18 700.93 130.02 765.11" fill="#3bc0f8"></polyline><rect x="400.97" y="315.16" width="198.89" height="161.24" fill="#1b4686"></rect><rect x="401.33" y="476.38" width="198.41" height="160.31" fill="#026fc9"></rect><path d="M600.99,636.52c-.76-54.34-45.36-98.16-100.27-98.16s-99.51,43.82-100.27,98.16h200.54Z" fill="#7de7ea"></path><circle cx="500.72" cy="518.58" r="62.54" fill="#4bb3f9"></circle><circle cx="500.72" cy="433.2" r="62.54" fill="#3bc0f8"></circle><path d="M500.7,538.36v98.16h100.44c-.76-54.34-45.36-98.16-100.27-98.16-.06,0-.11,0-.17,0Z" fill="#0fb7ab"></path><path d="M500.72,538.35c-19.13,0-37,5.36-52.21,14.65,11.19,16.94,30.39,28.12,52.21,28.12s41.02-11.18,52.21-28.12c-15.21-9.29-33.08-14.65-52.21-14.65Z" fill="#08b7aa"></path><path d="M500.68,538.32v42.76h.05c21.82,0,41.02-11.18,52.21-28.12-15.21-9.29-33.08-14.65-52.21-14.65h-.05Z" fill="#30fcf6"></path><path d="M601.63,315.17c-.76,54.32-45.36,98.13-100.27,98.13s-99.51-43.81-100.27-98.13h200.54Z" fill="#0fb7ab"></path><path d="M500.83,413.43v-98.37h100.44c-.76,54.46-45.36,98.38-100.27,98.38-.06,0-.11,0-.17,0Z" fill="#7de7ea"></path><path d="M500.72,413.43c-19.13,0-37-5.36-52.21-14.65,11.19-16.94,30.39-28.12,52.21-28.12s41.02,11.18,52.21,28.12c-15.21,9.29-33.08,14.65-52.21,14.65Z" fill="#0f7268"></path><path d="M500.68,413.47v-42.76h.05c21.82,0,41.02,11.18,52.21,28.12-15.21,9.29-33.08,14.65-52.21,14.65h-.05Z" fill="#35d3cb"></path><path d="M500.71,456.04c-18.03,0-34.26,7.64-45.68,19.84,11.41,12.21,27.65,19.84,45.68,19.84s34.26-7.64,45.68-19.84c-11.41-12.21-27.65-19.84-45.68-19.84Z" fill="#1fe5e5"></path><polyline points="194.16 636.77 258.35 700.93 194.19 765.11" fill="#3bc0f8"></polyline><polyline points="258.55 636.77 322.73 700.93 258.58 765.11" fill="#2857db"></polyline><polyline points="322.89 636.77 387.07 700.93 322.92 765.11" fill="#3078f9"></polyline><polyline points="451.4 636.77 515.58 700.93 451.43 765.11" fill="#0fb7ab"></polyline><polyline points="516.68 636.77 580.86 700.93 516.71 765.11" fill="#0050a8"></polyline><polygon points="599.78 655.7 580.85 636.77 580.88 765.11 599.78 746.2 599.78 655.7" fill="#00adee"></polygon><polyline points="387.23 636.77 451.41 700.93 387.26 765.11" fill="#3bc0f8"></polyline></svg>