<svg xmlns="http://www.w3.org/2000/svg" id="a" viewBox="0 0 600 765"><rect x="-.05" y="-.22" width="600" height="765.59" fill="#35d3cb"></rect><rect x="-.08" y="315.59" width="601.31" height="452.92" fill="#08b7aa"></rect><rect x="226.35" y="315.81" width="226.71" height="224.72" fill="#1fe5e5"></rect><rect x=".05" y="315.58" width="226.29" height="226.29" fill="#1fe5e5"></rect><rect x=".05" y="315.7" width="226.2" height="224.7" fill="#1ec2f5"></rect><rect x=".05" y="395.13" width="226.26" height="67.44" fill="#1494b2"></rect><rect x=".2" y="315.59" width="226.05" height="79.75" fill="#00b6e0"></rect><rect x="226.41" y="315.59" width="226.79" height="79.75" fill="#04a89b"></rect><path d="M113.7,327.7l.1,67.48,66.95-.09c0-.15,.02-.3,.02-.45-.05-37-30.08-66.96-67.07-66.94Z" fill="#12d2ff"></path><path d="M181.34,462.52l-67.48-.02,.02-66.95c.15,0,.3-.02,.45-.02,37,.01,66.99,30,67.02,67Z" fill="#2f4fa8"></path><path d="M113.93,529.98v-67.48h67.41c0,.15,.02,.3,.02,.45,0,37-30.19,67-67.44,67.04Z" fill="#86ebfc"></path><path d="M113.88,462.53l-.1-67.48-66.95,.09c0,.15-.02,.3-.02,.45,.05,37,30.08,66.96,67.07,66.94Z" fill="#05bdc6"></path><path d="M113.97,530l-.1-67.48-66.95,.09c0,.15-.02,.3-.02,.45,.05,37,30.08,66.96,67.07,66.94Z" fill="#1690f4"></path><path d="M570.12,705.86h-44.27v-43.93c.11,0,.21-.01,.31-.01,24.27,0,43.95,19.68,43.96,43.95Z" fill="#2f4fa8"></path><path d="M525.9,750.11v-44.27h44.22c0,.1,.02,.19,.02,.29,0,24.27-19.8,43.95-44.24,43.97Z" fill="#86ebfc"></path><path d="M525.86,705.87l-.06-44.27-43.92,.06c0,.1-.01,.19-.01,.29,.03,24.27,19.73,43.92,44,43.91Z" fill="#05bdc6"></path><path d="M525.93,750.13l-.06-44.27-43.92,.06c0,.1-.01,.19-.01,.29,.03,24.27,19.73,43.92,44,43.91Z" fill="#1690f4"></path><path d="M570.12,411.73h-44.27v-43.93c.11,0,.21-.01,.31-.01,24.27,0,43.95,19.68,43.96,43.95Z" fill="#2f4fa8"></path><path d="M525.9,455.98v-44.27h44.22c0,.1,.02,.19,.02,.29,0,24.27-19.8,43.95-44.24,43.97Z" fill="#86ebfc"></path><path d="M525.86,411.74l-.06-44.27-43.92,.06c0,.1-.01,.19-.01,.29,.03,24.27,19.73,43.92,44,43.91Z" fill="#05bdc6"></path><path d="M525.37,366.8l.05-36.99,36.69,.05c0,.08,.01,.16,.01,.24-.03,20.28-16.48,36.7-36.76,36.69Z" fill="#35d3cb"></path><path d="M525.93,456l-.06-44.27-43.92,.06c0,.1-.01,.19-.01,.29,.03,24.27,19.73,43.92,44,43.91Z" fill="#1690f4"></path><path d="M113.68,327.55l.1,67.48-66.95,.09c0-.15-.02-.3-.02-.45-.05-37,29.89-67.05,66.88-67.13Z" fill="#088472"></path><path d="M525.53,459.19l.1,67.48,66.95-.09c0-.15,.02-.3,.02-.45-.05-37-30.08-66.96-67.07-66.94Z" fill="#12d2ff"></path><path d="M593.17,594.01l-67.48-.02,.02-66.95c.15,0,.3-.02,.45-.02,37,.01,66.99,30,67.02,67Z" fill="#2f4fa8"></path><path d="M525.76,661.47v-67.48h67.41c0,.15,.02,.3,.02,.45,0,37-30.19,67-67.44,67.04Z" fill="#86ebfc"></path><path d="M525.71,594.02l-.1-67.48-66.95,.09c0,.15-.02,.3-.02,.45,.05,37,30.08,66.96,67.07,66.94Z" fill="#1bccba"></path><path d="M525.8,661.49l-.1-67.48-66.95,.09c0,.15-.02,.3-.02,.45,.05,37,30.08,66.96,67.07,66.94Z" fill="#1690f4"></path><path d="M525.51,459.04l.1,67.48-66.95,.09c0-.15-.02-.3-.02-.45-.05-37,29.89-67.05,66.88-67.13Z" fill="#088472"></path><polyline points="226.54 323.86 258.85 356.15 226.56 388.46" fill="#86ebfc"></polyline><polyline points="259.01 323.86 291.32 356.15 259.03 388.46" fill="#1bccba"></polyline><polyline points="291.82 323.86 324.13 356.15 291.84 388.46" fill="#077"></polyline><polyline points="324.12 323.86 356.42 356.15 324.13 388.46" fill="#1bccba"></polyline><polyline points="356.52 323.86 388.83 356.15 356.54 388.46" fill="#00b6e0"></polyline><polyline points="388.91 323.86 421.21 356.15 388.92 388.46" fill="#026fc9"></polyline><polyline points="421.29 323.86 453.59 356.15 421.3 388.46" fill="#35d3cb"></polyline><rect x="226.37" y="540.42" width="226.31" height="226.27" fill="#1db5aa"></rect><rect x="226.37" y="540.43" width="112.5" height="113.44" fill="#028da0"></rect><rect x="339.03" y="654.03" width="113.65" height="112.67" fill="#35d3cb"></rect><rect x="338.87" y="540.41" width="113.65" height="113.78" fill="#86ebfc"></rect><circle cx="334.89" cy="656.58" r="15.03" fill="#efedec"></circle><path d="M339.03,556.11h-.03v-.1c-54.13,.05-97.99,43.95-97.99,98.09h97.95l.07,.07v-98.06Z" fill="#026fc9"></path><path d="M437.05,654.1c0-54.14-43.86-98.03-97.99-98.09v.1h-.03v98.06l.07-.07h97.95Z" fill="#0294a8"></path><path d="M339.03,654.03l-.07,.07h-97.95c0,54.14,43.86,98.03,97.99,98.09v-.1h.03v-98.06Z" fill="#1bccba"></path><path d="M384.5,698.61l-15.32-15.34c-7.51,7.75-17.81,12.78-29.27,13.45v21.7c17.43-.68,33.15-8.14,44.59-19.82Z" fill="#19a28b"></path><path d="M337.3,607.97c-24.49,0-44.42,19.93-44.42,44.42,0,13.31,5.89,25.26,15.19,33.41l.02-.02c7.81,6.83,18.03,10.99,29.2,10.99,.88,0,1.75-.03,2.61-.08v-42.73l.06,.06h41.71c.02-.54,.04-1.08,.04-1.63,0-24.49-19.93-44.42-44.42-44.42Z" fill="none"></path><path d="M339.03,654.03v46.88h0v.05c24.96-1.45,44.92-21.77,45.83-46.86h-45.76l-.07-.07Z" fill="#0294a8"></path><path d="M408.68,654.1c-.93,38.22-31.57,69.2-69.65,70.69v27.3h.03v.1c54.13-.05,97.99-43.95,97.99-98.09h-28.37Z" fill="#04a89b"></path><polygon points="339.03 654.03 364.22 654.1 396.75 654.1 396.1 635.11 373.99 608.45 341.26 591.54 339.09 590.68 339.03 653.16 339.03 654.03" fill="#1bccba"></polygon><polygon points="339.11 654.64 313.91 654.57 281.38 654.57 282.03 673.55 304.14 700.22 336.87 717.12 339.04 717.99 339.11 655.51 339.11 654.64" fill="#19c9f2"></polygon><path d="M336.16,701c-12.26,0-23.47-4.56-32.04-12.06l-.03,.03c-10.21-8.94-16.67-22.06-16.67-36.66,0-26.88,21.87-48.74,48.74-48.74s48.74,21.87,48.74,48.74c0,.6-.02,1.2-.04,1.79h23.82c.01-.6,.02-1.19,.02-1.79,0-40-32.54-72.54-72.54-72.54s-72.54,32.54-72.54,72.54,32.54,72.54,72.54,72.54c.96,0,1.91-.02,2.86-.06v-23.88c-.95,.06-1.9,.09-2.86,.09Z" fill="#8ae2dc"></path><path d="M408.68,654.1h-23.82c-.91,25.09-20.88,45.41-45.83,46.86v-.05h0v23.88c38.08-1.49,68.72-32.47,69.65-70.69Z" fill="#86ebfc"></path><path d="M339.07,579.8c-.94-.04-1.88-.07-2.83-.07h0c-.62,0-1.24,0-1.86,.02-.24,0-.48,.02-.72,.03-.38,.01-.75,.02-1.13,.04-.33,.02-.65,.04-.97,.06-.28,.02-.57,.03-.85,.05-.38,.03-.75,.07-1.13,.1-.23,.02-.46,.04-.68,.06-.42,.04-.84,.09-1.25,.14-.18,.02-.36,.04-.54,.06-.46,.06-.91,.12-1.37,.19-.14,.02-.28,.04-.41,.06-.49,.07-.98,.16-1.48,.24-.1,.02-.19,.03-.29,.05-.53,.09-1.06,.2-1.58,.3-.06,.01-.11,.02-.17,.03-.57,.11-1.13,.24-1.69,.36h-.04c-32.24,7.38-56.37,36.29-56.37,70.73,0,.6,.03,1.2,.05,1.79h23.8c-.02-.6-.05-1.19-.05-1.79,0-13.68,5.67-26.05,14.78-34.92h0c2.2-2.14,4.59-4.07,7.15-5.76h.01c.63-.43,1.28-.83,1.94-1.22,.02-.01,.04-.02,.06-.03,.64-.38,1.29-.75,1.94-1.1,.04-.02,.09-.04,.13-.07,.64-.34,1.28-.66,1.93-.97,.07-.03,.14-.06,.22-.1,.63-.29,1.26-.58,1.9-.84,.11-.04,.22-.08,.32-.13,.61-.25,1.23-.49,1.85-.72,.15-.05,.3-.1,.45-.15,.59-.21,1.18-.41,1.77-.59,.19-.06,.39-.11,.59-.17,.56-.16,1.12-.33,1.69-.47,.25-.06,.5-.11,.74-.17,.52-.12,1.05-.25,1.57-.36,.31-.06,.62-.11,.92-.17,.48-.09,.96-.18,1.44-.25,.37-.06,.75-.1,1.13-.14,.42-.05,.85-.12,1.27-.16,.47-.05,.95-.08,1.43-.11,.34-.02,.67-.06,1.01-.08,.79-.04,1.58-.06,2.38-.06,.03,0,.06,0,.1,0,.94,0,1.87,.03,2.79,.09h.04v-23.81Z" fill="#05bdc6"></path><path d="M377.89,593.03c-.22-.15-.43-.3-.65-.45-.22-.15-.43-.3-.65-.45-.4-.27-.8-.53-1.21-.79-.04-.02-.07-.05-.11-.07-10.53-6.78-22.92-10.92-36.23-11.45v23.82s.04,0,.06,0v.06c8.75,.52,16.88,3.35,23.79,7.89,.05,.04,.11,.07,.16,.11,.54,.35,1.06,.72,1.58,1.1,.16,.11,.31,.23,.47,.34,.42,.31,.84,.63,1.25,.95,.26,.21,.51,.41,.77,.63,.3,.25,.61,.5,.91,.76,.37,.32,.73,.64,1.08,.97,.18,.17,.36,.33,.54,.5,.49,.47,.97,.94,1.45,1.43,.04,.04,.08,.08,.13,.13,.54,.56,1.07,1.13,1.58,1.72h0c7.55,8.58,12.13,19.83,12.13,32.13,0,.6-.02,1.19-.05,1.79h23.8c.01-.6,.05-1.19,.05-1.79,0-24.49-12.2-46.18-30.85-59.32Z" fill="#1fe5e5"></path><rect x=".04" y="540.33" width="226.29" height="226.29" fill="#1494b2"></rect><rect x="56.7" y="540.23" width="169.6" height="226.39" fill="#19c9f2"></rect><polyline points="0 710.12 -.1 653.54 56.48 653.44" fill="#2f4fa8"></polyline><polyline points=".03 766.73 -.07 710.15 56.51 710.05" fill="#05b0cc"></polyline><polyline points="1.05 651.33 .95 594.74 57.53 594.64" fill="#05b0cc"></polyline><polyline points="170.08 766.9 169.98 710.32 226.56 710.22" fill="#05b0cc"></polyline><polyline points="56.52 766.56 56.43 710.29 113.01 710.19" fill="#028da0"></polyline><polyline points="169.13 596.89 169.03 540.31 225.62 540.21" fill="#05b0cc"></polyline><rect x="226.13" y="462.28" width="227.06" height="77.96" fill="#05b0cc"></rect><path d="M169.16,653.55c-.16,0-.33-.01-.49-.01-30.75,0-55.67,24.93-55.67,55.67,0,.35,.02,.69,.03,1.03h56.14v-56.7Z" fill="#026fc9"></path><path d="M169.21,653c.17,0,.33-.01,.5-.01,31.09,0,56.29,25.2,56.29,56.29,0,.35-.02,.7-.03,1.04h-56.77v-57.33Z" fill="#0294a8"></path><path d="M113.02,710.24c-.16,0-.33,.01-.49,.01-30.75,0-55.67-24.93-55.67-55.67,0-.35,.02-.69,.03-1.03h56.14v56.7Z" fill="#86ebfc"></path><path d="M170.33,540.72c-.16,0-.33-.01-.49-.01-30.75,0-55.67,24.93-55.67,55.67,0,.35,.02,.69,.03,1.03h56.14v-56.7Z" fill="#7de7ea"></path><path d="M113.64,540.72c-.16,0-.33-.01-.49-.01-30.75,0-55.67,24.93-55.67,55.67,0,.35,.02,.69,.03,1.03h56.14v-56.7Z" fill="#1690f4"></path><path d="M56.96,540.72c-.16,0-.33-.01-.49-.01-30.75,0-55.67,24.93-55.67,55.67,0,.35,.02,.69,.03,1.03H56.96v-56.7Z" fill="#35d3cb"></path><path d="M226.24,540.72c-.16,0-.33-.01-.49-.01-30.75,0-55.67,24.93-55.67,55.67,0,.35,.02,.69,.03,1.03h56.14v-56.7Z" fill="#026fc9"></path><path d="M169.28,767.71c.17,0,.33,.01,.5,.01,31.12,0,56.36-25.23,56.36-56.36,0-.35-.02-.7-.03-1.05h-56.83v57.39Z" fill="#05b0cc"></path><path d="M113.11,767.71c.17,0,.33,.01,.5,.01,31.12,0,56.36-25.23,56.36-56.36,0-.35-.02-.7-.03-1.05h-56.83v57.39Z" fill="#1690f4"></path><polyline points="169.88 653.94 169.78 597.44 226.29 597.34" fill="#077"></polyline><path d="M170.24,597.35c-.16,0-.32-.01-.49-.01-30.54,0-55.3,24.76-55.3,55.3,0,.34,.02,.68,.03,1.03h55.77v-56.32Z" fill="#04a89b"></path><path d="M113.29,597.52c-.16,0-.32-.01-.49-.01-30.44,0-55.12,24.68-55.12,55.12,0,.34,.02,.68,.03,1.02h55.58v-56.13Z" fill="#088472"></path><rect x="339.07" y="462.27" width="113.87" height="78.06" fill="#1bccba"></rect><g><path d="M339.23,406.37s-.04,0-.06,0v71.44h-37.64v23.59c9.85,9.29,23.09,15.01,37.7,15.01,30.39,0,55.02-24.63,55.02-55.02s-24.63-55.02-55.02-55.02Z" fill="#077"></path><path d="M339.1,516.4v-56.96h-56.51c0,.13-.02,.25-.02,.38,0,31.23,25.31,56.55,56.53,56.58Z" fill="#35d3cb"></path><path d="M339.09,406.36v56.96h-56.51c0-.13-.02-.25-.02-.38,0-31.23,25.31-56.55,56.53-56.58Z" fill="#05bdc6"></path><path d="M339.11,516.38s.07,0,.11,0c30.47,0,55.18-22.57,55.18-50.41,0-.96-.1-1.9-.16-2.85h-55.13v53.25Z" fill="#04a89b"></path><path d="M339.03,433.97v29.31h29.08c0-.07,0-.13,0-.19,0-16.07-13.02-29.1-29.09-29.12Z" fill="#35d3cb"></path><path d="M339.03,492.51v-29.31h29.08c0,.07,0,.13,0,.19,0,16.07-13.02,29.1-29.09,29.12Z" fill="#8ae2dc"></path><path d="M338.97,492.68v-29.31h-29.08c0,.07,0,.13,0,.19,0,16.07,13.02,29.1,29.09,29.12Z" fill="#028da0"></path><path d="M339.19,433.97v29.31h-29.08c0-.07,0-.13,0-.19,0-16.07,13.02-29.1,29.09-29.12Z" fill="#05b0cc"></path></g></svg>